<svg id="Layer_1" data-name="Layer 1" xmlns="http://www.w3.org/2000/svg" viewBox="0 0 63 63"><defs><style>.cls-1{fill:#3c0003;stroke:#3c0003;stroke-miterlimit:10;}</style></defs><title>Artboard 5</title><path class="cls-1" d="M21.72,13.44l-3.37-.8-3.38.8-.27-3.39L12.86,7.13,16.1,5.82l2.25-2.57,2.24,2.57,3.24,1.31L22,10.05Zm-3.37-2.85,1.56.37L20,9.4l.82-1.31L19.4,7.5l-1-1.21L17.3,7.5l-1.47.59.83,1.31L16.78,11Z"/><polygon class="cls-1" points="55.42 30.23 53.96 29.6 55.87 25.13 51.89 25.13 54.75 18.44 56.22 19.07 54.3 23.53 58.29 23.53 55.42 30.23"/><polygon class="cls-1" points="13.63 28.44 10.03 28.44 10.03 26.64 11.83 26.64 11.83 21.24 6.43 21.24 6.43 28.44 2.83 28.44 2.83 26.64 4.63 26.64 4.63 19.44 13.63 19.44 13.63 28.44"/><rect class="cls-1" x="5.83" y="23.44" width="7" height="1"/><polygon class="cls-1" points="48.83 13.44 44.83 13.44 44.83 11.44 46.83 11.44 46.83 5.44 40.83 5.44 40.83 13.44 36.83 13.44 36.83 11.44 38.83 11.44 38.83 3.44 48.83 3.44 48.83 13.44"/><rect class="cls-1" x="39.83" y="7.44" width="8" height="2"/><polygon class="cls-1" points="56.83 56.25 6.83 56.25 6.83 34.25 8.83 34.25 8.83 54.25 54.83 54.25 54.83 34.25 56.83 34.25 56.83 56.25"/><polygon class="cls-1" points="34.83 47.25 28.83 47.25 28.83 34.25 30.83 34.25 30.83 34.25 32.83 34.25 32.83 34.25 34.83 34.25 34.83 47.25"/><rect class="cls-1" x="30.83" y="46.25" width="2" height="9"/><polygon class="cls-1" points="16.83 47.25 10.83 47.25 10.83 34.25 12.83 34.25 12.83 34.25 14.83 34.25 14.83 34.25 16.83 34.25 16.83 47.25"/><rect class="cls-1" x="12.83" y="46.25" width="2" height="9"/><rect class="cls-1" x="24.83" y="34.25" width="2" height="21"/><rect class="cls-1" x="18.83" y="34.25" width="2" height="21"/><polygon class="cls-1" points="52.83 47.25 46.83 47.25 46.83 34.25 48.83 34.25 48.83 34.25 50.83 34.25 50.83 34.25 52.83 34.25 52.83 47.25"/><rect class="cls-1" x="48.83" y="46.25" width="2" height="9"/><rect class="cls-1" x="36.83" y="34.25" width="2" height="21"/><rect class="cls-1" x="42.83" y="34.25" width="2" height="21"/><path class="cls-1" d="M58.83,61.25h-54a2,2,0,0,1-2-2v-24a2,2,0,0,1,2-2h54a2,2,0,0,1,2,2v24A2,2,0,0,1,58.83,61.25Zm-54-26h0v24h54v-24Z"/><path class="cls-1" d="M42.83,34.25h-2v-15H36.66A5.9,5.9,0,0,0,32.54,21l-.71.71-.7-.71A5.9,5.9,0,0,0,27,19.25H22.83v15h-2v-17H27a7.87,7.87,0,0,1,4.82,1.67,7.9,7.9,0,0,1,4.83-1.67h6.17Z"/><rect class="cls-1" x="30.83" y="20.25" width="2" height="5"/><rect class="cls-1" x="30.83" y="27.25" width="2" height="7"/><polygon class="cls-1" points="46.83 34.25 44.83 34.25 44.83 22.25 41.83 22.25 41.83 20.25 46.83 20.25 46.83 34.25"/><polygon class="cls-1" points="18.83 34.25 16.83 34.25 16.83 20.25 21.83 20.25 21.83 22.25 18.83 22.25 18.83 34.25"/><rect class="cls-1" x="24.83" y="21.25" width="4" height="2"/><rect class="cls-1" x="24.83" y="25.25" width="4" height="2"/><rect class="cls-1" x="24.83" y="29.25" width="4" height="2"/><rect class="cls-1" x="34.83" y="21.25" width="4" height="2"/><rect class="cls-1" x="34.83" y="25.25" width="4" height="2"/><rect class="cls-1" x="34.83" y="29.25" width="4" height="2"/></svg>