<svg id="Layer_1" data-name="Layer 1" xmlns="http://www.w3.org/2000/svg" viewBox="0 0 63 63"><defs><style>.cls-1{fill:#3c0003;stroke:#3c0003;stroke-miterlimit:10;}</style></defs><title>Artboard 3</title><path class="cls-1" d="M24.5,38.5h-2a6,6,0,0,0-12,0h-2a8,8,0,0,1,16,0Z"/><path class="cls-1" d="M12.5,62.5a6,6,0,0,1-6-6v-2h2v2a4,4,0,0,0,8,0V54.61L9.86,24.36,7.38,26.58A14.67,14.67,0,0,0,2.5,37.5v1H.5v-1A16.65,16.65,0,0,1,6.05,25.09l3.32-3-.56-2.54A56.5,56.5,0,0,1,7.5,7.5a7,7,0,0,1,14,0,14.46,14.46,0,0,1-4.8,10.75l-5.13,4.58L18.5,54.5v2A6,6,0,0,1,12.5,62.5Zm2-60a5,5,0,0,0-5,5,54.34,54.34,0,0,0,1.26,11.65l.32,1.44,4.28-3.83A12.45,12.45,0,0,0,19.5,7.5,5,5,0,0,0,14.5,2.5Z"/><path class="cls-1" d="M12.5,50.5a12,12,0,0,1-12-12h2a10,10,0,0,0,20,0h2A12,12,0,0,1,12.5,50.5Z"/><path class="cls-1" d="M30.5,18.5a3,3,0,1,1,3-3A3,3,0,0,1,30.5,18.5Zm0-4a1,1,0,1,0,1,1A1,1,0,0,0,30.5,14.5Z"/><path class="cls-1" d="M33.5,15.5h-2V3.17l3.47,1A7.68,7.68,0,0,1,40.5,11.5v1.33l-7-2Zm0-6.75,4.83,1.38a5.67,5.67,0,0,0-3.91-4l-.92-.26Z"/><path class="cls-1" d="M50.5,24.5a3,3,0,1,1,3-3A3,3,0,0,1,50.5,24.5Zm0-4a1,1,0,1,0,1,1A1,1,0,0,0,50.5,20.5Z"/><rect class="cls-1" x="51.5" y="21.5" width="2" height="9"/><path class="cls-1" d="M33.5,54.5a3,3,0,1,1,3-3A3,3,0,0,1,33.5,54.5Zm0-4a1,1,0,1,0,1,1A1,1,0,0,0,33.5,50.5Z"/><path class="cls-1" d="M43.5,54.5a3,3,0,1,1,3-3A3,3,0,0,1,43.5,54.5Zm0-4a1,1,0,1,0,1,1A1,1,0,0,0,43.5,50.5Z"/><polygon class="cls-1" points="46.5 51.5 44.5 51.5 44.5 39.5 36.5 39.5 36.5 51.5 34.5 51.5 34.5 37.5 46.5 37.5 46.5 51.5"/><rect class="cls-1" x="35.5" y="41.5" width="10" height="2"/><rect class="cls-1" x="25.5" y="44.5" width="10" height="2"/><rect class="cls-1" x="45.5" y="44.5" width="16" height="2"/><rect class="cls-1" x="25.5" y="32.5" width="36" height="2"/><rect class="cls-1" x="25.5" y="56.5" width="36" height="2"/><rect class="cls-1" x="52.5" y="20.5" width="9" height="2"/><rect class="cls-1" x="25.5" y="20.5" width="23" height="2"/><rect class="cls-1" x="39.5" y="8.5" width="22" height="2"/><rect class="cls-1" x="25.5" y="8.5" width="7" height="2"/><rect class="cls-1" x="60.5" y="1.5" width="2" height="60"/></svg>