<svg id="Layer_1" data-name="Layer 1" xmlns="http://www.w3.org/2000/svg" viewBox="0 0 63 63"><defs><style>.cls-1{fill:#3c0003;stroke:#3c0003;stroke-miterlimit:10;}</style></defs><title>Artboard 7</title><path class="cls-1" d="M31.5,39.5a8,8,0,0,1-8-8v-6h2v6a6,6,0,0,0,12,0v-6h2v6A8,8,0,0,1,31.5,39.5Z"/><path class="cls-1" d="M43.5,29.5h-2v-6a10,10,0,0,0-20,0v6h-2v-6a12,12,0,0,1,24,0Z"/><path class="cls-1" d="M38.5,34.5v-2a3,3,0,0,0,2.22-1,3,3,0,0,0,.77-2.32,3.13,3.13,0,0,0-3.16-2.7H24.67a3.13,3.13,0,0,0-3.16,2.7,3,3,0,0,0,.77,2.32,3,3,0,0,0,2.22,1v2a5,5,0,0,1-5-5.49,5.14,5.14,0,0,1,5.15-4.51H38.33A5.14,5.14,0,0,1,43.48,29a5,5,0,0,1-5,5.49Z"/><polygon class="cls-1" points="62.5 62.5 58.5 62.5 58.5 60.5 60.5 60.5 60.5 54.5 54.5 54.5 54.5 62.5 50.5 62.5 50.5 60.5 52.5 60.5 52.5 52.5 62.5 52.5 62.5 62.5"/><rect class="cls-1" x="53.5" y="56.5" width="8" height="2"/><path class="cls-1" d="M4.5,10.5H.5v-2h2V.5H3.89A7.72,7.72,0,0,1,10.33,4L8.67,5.05A5.74,5.74,0,0,0,4.5,2.53Z"/><rect class="cls-1" x="4.5" y="45.5" width="2" height="3"/><rect class="cls-1" x="2.03" y="46.53" width="2" height="3" transform="translate(-33.07 16.21) rotate(-45)"/><rect class="cls-1" x="0.5" y="49.5" width="3" height="2"/><rect class="cls-1" x="1.53" y="51.97" width="3" height="2" transform="translate(-36.57 17.66) rotate(-45)"/><rect class="cls-1" x="4.5" y="52.5" width="2" height="3"/><rect class="cls-1" x="6.97" y="51.47" width="2" height="3" transform="translate(-35.12 21.15) rotate(-45)"/><rect class="cls-1" x="7.5" y="49.5" width="3" height="2"/><rect class="cls-1" x="6.47" y="47.03" width="3" height="2" transform="translate(-31.62 19.71) rotate(-45)"/><rect class="cls-1" x="56.5" y="0.5" width="2" height="3"/><rect class="cls-1" x="54.03" y="1.53" width="2" height="3" transform="translate(13.98 39.79) rotate(-45)"/><rect class="cls-1" x="52.5" y="4.5" width="3" height="2"/><rect class="cls-1" x="53.53" y="6.97" width="3" height="2" transform="translate(10.48 41.24) rotate(-45)"/><rect class="cls-1" x="56.5" y="7.5" width="2" height="3"/><rect class="cls-1" x="58.97" y="6.47" width="2" height="3" transform="translate(11.93 44.74) rotate(-45)"/><rect class="cls-1" x="59.5" y="4.5" width="3" height="2"/><rect class="cls-1" x="58.47" y="2.03" width="3" height="2" transform="translate(15.43 43.29) rotate(-45)"/><rect class="cls-1" x="48.5" y="36.67" width="2" height="5.66" transform="translate(-13.43 46.57) rotate(-45)"/><path class="cls-1" d="M44.5,62.5h-26V48.94L7.33,38.79a6.5,6.5,0,0,1-1.06-1.51,6.26,6.26,0,0,1-.64-3.35L7.34,14.32a3.09,3.09,0,0,1,6.16.27V34.05l7.31,6.4,5.69-.82V37.5h2v3.87l-8.31,1.18L11.5,35V14.59a1.09,1.09,0,0,0-1.09-1.09,1.08,1.08,0,0,0-1.08,1L7.63,34.1a4.28,4.28,0,0,0,1.11,3.27L20.5,48.06V60.5h22V48.06L54.32,37.31a4.29,4.29,0,0,0,.62-.93,4.36,4.36,0,0,0,.44-2.28L53.67,14.49a1.08,1.08,0,0,0-1.08-1,1.09,1.09,0,0,0-1.09,1.09V35l-8.69,7.6L34.5,41.37V37.5h2v2.13l5.69.82,7.31-6.4V14.59a3.09,3.09,0,0,1,6.16-.27l1.71,19.61a6.26,6.26,0,0,1-.64,3.35,6.47,6.47,0,0,1-1,1.45L44.5,48.94Z"/><rect class="cls-1" x="10.67" y="38.5" width="5.66" height="2" transform="translate(-23.98 21.12) rotate(-45)"/><rect class="cls-1" x="19.5" y="56.5" width="18" height="2"/><rect class="cls-1" x="39.5" y="56.5" width="4" height="2"/><path class="cls-1" d="M31.5,44.5c-3.68,0-4.9-3.53-4.95-3.68l1.9-.64A3.44,3.44,0,0,0,31.5,42.5a3.44,3.44,0,0,0,3-2.32l1.9.64C36.4,41,35.18,44.5,31.5,44.5Z"/></svg>